<?xml version="1.0" standalone="no"?>
<!DOCTYPE svg PUBLIC "-//W3C//DTD SVG 20010904//EN"
 "http://www.w3.org/TR/2001/REC-SVG-20010904/DTD/svg10.dtd">
<svg version="1.0" xmlns="http://www.w3.org/2000/svg"
 width="20" height="20" viewBox="0 0 225.000000 225.000000"
 preserveAspectRatio="xMidYMid meet">
<metadata>
Created by potrace 1.16, written by Peter Selinger 2001-2019
</metadata>
<g transform="translate(0.000000,225.000000) scale(0.100000,-0.100000)"
fill="#000000" stroke="none">
<path d="M1180 2139 c-41 -19 -43 -22 -27 -34 16 -12 13 -14 -30 -19 -26 -3
-84 -8 -128 -11 -209 -16 -360 -42 -420 -72 -357 -181 -551 -966 -358 -1453
74 -185 207 -314 405 -393 126 -51 189 -61 378 -61 156 0 186 3 280 26 222 56
395 144 539 274 257 231 362 659 251 1019 -61 198 -184 369 -364 504 -95 72
-418 241 -459 241 -12 0 -42 -10 -67 -21z m-32 -170 c26 -6 100 -36 165 -67
116 -55 118 -56 163 -44 44 12 48 11 115 -25 139 -75 228 -164 294 -293 66
-131 80 -196 80 -380 0 -139 -4 -177 -22 -240 -32 -111 -85 -229 -139 -312
-62 -94 -192 -223 -274 -271 -313 -182 -880 -119 -1098 122 -102 112 -162 324
-162 570 0 336 102 637 264 779 75 66 245 131 406 157 108 17 150 18 208 4z"/>
<path d="M737 1403 c-23 -6 -47 -54 -47 -93 0 -21 9 -41 29 -61 38 -38 82 -39
118 -3 22 22 25 32 20 71 -3 25 -13 54 -23 64 -20 20 -67 31 -97 22z"/>
<path d="M1385 1378 c-29 -16 -35 -28 -35 -74 0 -89 80 -126 141 -65 76 77
-12 192 -106 139z"/>
<path d="M552 998 c7 -80 38 -147 98 -208 59 -61 116 -96 210 -130 189 -69
394 -63 560 17 79 38 162 124 188 196 41 108 21 155 -33 77 -54 -77 -178 -156
-296 -186 -82 -21 -232 -21 -324 0 -159 38 -304 138 -351 244 -15 32 -30 52
-40 52 -14 0 -16 -9 -12 -62z"/>
</g>
</svg>
